<?xml version="1.0" encoding="utf-8"?>
<!-- Generator: Adobe Illustrator 27.5.0, SVG Export Plug-In . SVG Version: 6.00 Build 0)  -->
<svg version="1.1" id="Layer_2_00000111886890819769487860000002557191869855416978_"
	 xmlns="http://www.w3.org/2000/svg" xmlns:xlink="http://www.w3.org/1999/xlink" x="0px" y="0px" viewBox="0 0 452.6 135.9"
	 style="enable-background:new 0 0 452.6 135.9;" xml:space="preserve">
<style type="text/css">
	.st0{fill:#C6DA3F;}
	.st1{fill:#FFFFFF;}
</style>
<g>
	<circle class="st0" cx="154" cy="51.5" r="51.5"/>
	<path class="st1" d="M148.2,0.3c10.6,3.3,18.5,7.7,23.6,11.1c7.3,4.7,13.4,8.8,18.1,16.7c2.1,3.6,5.5,9.5,4.9,17.3
		c-0.5,6.7-3.6,11.4-5.3,13.9c-1.8,2.7-8.6,12.6-18.8,12.9c-4.5,0.1-7.8-1.7-13.9-5.2c-6.9-3.9-7.9-6.2-15.7-11.5
		c-3.6-2.5-8-5.4-13.3-7.5c-4.5-1.7-12.9-4.1-25-2.1c-0.1,0.6-0.1,1.1-0.2,1.7c-0.1,0.8-0.1,1.7-0.1,2.4c5.3-1.3,13.4-2.3,21.7,0.6
		c5,1.7,9.4,4.6,11.1,5.7c2.9,1.8,2.9,2.2,8.1,6.3c8,6.2,12.4,8.8,14.1,9.8c5.6,3.2,8,3.7,9.2,3.9c0,0,4.4,0.8,9.2-0.4
		c11.1-2.7,20.1-15.1,22.2-27.2c1.1-6.5,0.1-11.5-0.2-12.7c-1.6-6.9-5.2-11.4-7.9-14.7c-4.1-5-8.1-7.8-13.3-11.4
		c-4.1-2.8-9.9-6.4-17.6-9.7c-1.6-0.2-3.3-0.3-5.2-0.3C152,0,150,0.1,148.2,0.3L148.2,0.3z"/>
	<path class="st1" d="M437.3,95.2c3.8-4.9,6.4-11.6,7.6-20.1c0.6-4.3,0.6-7.9-0.1-10.8c-0.7-3-1.7-5.5-3.2-7.8
		c-1.5-2.2-3.1-4.3-4.9-6.4L427.6,40c-1.8-1.9-2.9-3.6-3.4-5.1c-0.5-1.5-0.6-2.9-0.5-4.1s0.7-2.3,1.5-3.1c0.8-0.8,1.9-1.2,3.4-1.2
		c1.2,0,2.1,0.3,2.7,1c0.6,0.7,0.8,1.7,0.7,2.9l-0.9,6.3h18.6c1.3-9.1,0.5-15.9-2.4-20.3c-2.9-4.5-8.5-6.7-16.9-6.7
		c-6.8,0-12.4,2-16.5,6.1c-4.2,4.1-6.8,10-7.9,17.8c-1,7.4,1.1,14,6.4,19.8l7.1,7.8c2.1,2.3,3.7,4.3,4.8,6c1.1,1.7,1.8,3.5,2.1,5.4
		c0.3,1.9,0.2,4.2-0.2,7c-0.3,2.2-0.9,3.8-1.6,4.8c-0.8,1-2,1.5-3.7,1.5c-1.6,0-2.6-0.6-3.1-1.8s-0.6-2.8-0.3-5l1.6-11.4h-18
		l-1.3,8.9c-1.3,9.1-0.4,15.7,2.7,19.8s8.8,6.2,17.1,6.2C427.6,102.5,433.5,100.1,437.3,95.2z M390.9,101.7l12.8-91.3h-17.6
		l-12.8,91.3H390.9z M339.1,101.7l6.4-45.6l2.7,45.6h17.8l12.8-91.3h-17.6l-6.1,43.7l-2.3-43.7h-18.8l-12.8,91.3H339.1z
		 M286.2,101.7l6.4-45.6l2.7,45.6h17.8L326,10.4h-17.6l-6.1,43.7l-2.3-43.7h-18.8l-12.8,91.3H286.2z M262.3,101.7l2.5-17.8h-19.1
		l2.9-20.9h17.2l2.4-17.2H251l2.5-17.8h17.9l2.5-17.6h-36.5l-12.8,91.3H262.3z M208.7,101.7l10.4-73.8h10.8l2.5-17.5h-39.9L190,27.9
		h10.8l-10.4,73.8H208.7z M90.5,99.6c3.6-1.9,6.6-4.7,9-8.2c2.4-3.5,3.9-7.7,4.6-12.6l9.6-68.5H95.3l-9.9,70.3c-0.5,3.4-2.1,5-4.8,5
		c-1.4,0-2.4-0.5-2.9-1.5c-0.5-1-0.6-2.2-0.4-3.8l3.1-21.8h-18l-3.2,22.9C58.5,86,59,89.9,60.5,93c1.5,3.1,3.9,5.5,7.1,7.1
		c3.2,1.6,6.8,2.4,10.9,2.4C82.9,102.5,86.8,101.5,90.5,99.6z M40.9,99.6c3.6-1.9,6.6-4.7,9-8.2c2.4-3.5,3.9-7.7,4.6-12.6l9.6-68.5
		H45.8l-9.9,70.3c-0.5,3.4-2.1,5-4.8,5c-1.4,0-2.4-0.5-2.9-1.5c-0.5-1-0.6-2.2-0.4-3.8l3.1-21.8h-18L9.6,81.5C9,86,9.4,89.9,11,93
		c1.5,3.1,3.9,5.5,7.1,7.1c3.2,1.6,6.8,2.4,10.9,2.4C33.3,102.5,37.3,101.5,40.9,99.6z"/>
	<polygon class="st1" points="15.7,106 15.7,126.5 446.6,116.2 446.6,106 	"/>
</g>
</svg>
